<svg width="92" height="92" viewBox="0 0 92 92" fill="none" xmlns="http://www.w3.org/2000/svg">
<path fill-rule="evenodd" clip-rule="evenodd" d="M21.8693 30.8338C18.1649 48.3214 18.0815 51.2748 17.1971 55.7302C15.8287 62.505 16.9634 64.5409 19.1995 60.2024C24.5726 49.7064 39.1234 37.1914 47.133 36.1902C48.2343 36.0567 48.3845 35.8899 47.8172 35.5227C47.0329 35.0055 45.1973 35.3058 42.6276 36.307C34.4344 39.5109 26.6417 44.9005 20.8848 52.5096C19.8336 53.9113 19.8336 54.0782 20.7013 48.6383C21.7192 42.2306 22.737 37.9757 24.3056 31.3511C24.7228 29.5823 22.5201 27.8135 21.8693 30.8338ZM53.1903 35.1723C51.555 35.5061 52.4894 36.2736 54.7755 36.4739C55.6265 36.5406 56.7779 36.7073 57.3453 36.8241C59.8149 37.3414 59.064 35.9566 56.4108 35.4226C54.4418 35.0221 54.0413 34.9888 53.1903 35.1723ZM66.5396 38.6597C60.3155 41.0125 61.1331 48.5215 67.7411 49.6395C73.2644 50.574 77.386 43.4823 73.4146 39.8947C71.9461 38.5764 68.4586 37.9422 66.5396 38.6597ZM71.6458 39.8947C73.1809 40.8625 73.4146 42.3641 72.3633 44.5835C70.5111 48.4882 66.4061 49.573 65.0545 46.5193C63.4526 42.8983 68.4586 37.8756 71.6458 39.8947Z" fill="#F69F1E"/>
</svg>
