<svg width="124" height="124" viewBox="0 0 124 124" fill="none" xmlns="http://www.w3.org/2000/svg">
<path fill-rule="evenodd" clip-rule="evenodd" d="M56.5712 30.3862C35.067 31.9105 8.94868 38.9963 0.956653 45.5054C-1.02076 47.112 0.25636 48.1831 3.05769 47.2356C7.21849 45.8761 17.5587 44.3931 30.865 43.2808C37.374 42.7452 54.6762 42.704 60.4848 43.2808C102.175 47.2356 105.594 52.7147 75.7685 67.8748C67.8177 71.912 68.3532 71.8296 65.4695 69.3166C61.3499 65.7326 57.5599 63.3432 56.9832 63.9612C56.6948 64.2495 54.3878 67.5452 51.8336 71.2941C46.643 78.9153 42.9769 83.8176 39.4339 87.8137C34.408 93.4987 38.6923 94.2402 67.3645 92.7572C72.3081 92.51 78.4875 92.2628 81.0828 92.1804C87.427 92.0569 87.0562 89.0907 79.8881 83.2409C78.1167 81.7578 77.7871 82.0462 83.7606 80.1924C89.734 78.3386 95.0483 76.3612 101.269 74.1366C148.068 57.2874 116.264 26.1843 56.5712 30.3862ZM86.5619 36.0714C115.481 39.4907 127.016 50.0781 114.369 61.5718C109.426 66.021 84.1313 76.6495 74.9034 78.1326C72.0197 78.5858 72.514 80.0688 77.0868 84.4768L80.8768 88.1844C80.8356 88.1844 54.5114 88.3904 43.8416 89.6263L41.823 89.8735C46.1074 84.312 53.1519 75.2901 55.9533 71.0881C57.9307 68.122 58.3426 67.71 58.837 68.2044C59.7021 69.0283 67.5293 74.0954 67.9825 74.8781C69.6715 77.7618 95.8722 61.9014 98.5087 56.4635C103.699 45.7525 80.918 38.3371 47.7141 38.2135C37.9095 38.1723 37.0856 38.1312 39.5574 37.678C52.5752 35.2475 73.8323 34.5884 86.5619 36.0714Z" fill="#E1E1E1"/>
</svg>
