<svg width="379" height="16" viewBox="0 0 379 16" fill="none" xmlns="http://www.w3.org/2000/svg">
<g clip-path="url(#clip0_238_88307)">
<path d="M82.4868 3.25809C118.488 2.78947 154.508 2.48822 190.529 2.35433C226.55 2.22043 262.237 2.26506 298.081 2.47706C318.443 2.59979 338.825 2.76716 359.187 2.99031L361.95 0.703001C315.464 1.16046 268.998 1.7295 222.532 2.41011C176.066 3.09073 129.6 3.88292 83.1336 4.79784C57.049 5.31109 30.9841 5.84666 4.89952 6.42685C3.3709 6.46032 1.07797 6.68348 0.215673 7.53145C-0.587833 8.32364 0.901592 8.73647 2.13625 8.71416C50.5622 8.01123 99.0273 7.94428 147.473 8.52448C195.918 9.10467 244.325 10.3432 292.672 12.2176C319.835 13.2665 346.977 14.5273 374.081 15.9889C375.551 16.067 377.981 15.6542 378.765 14.8843C379.627 14.0475 378.02 13.7574 376.844 13.7016C328.614 11.1019 280.267 9.13815 231.88 7.82155C183.493 6.50495 135.028 5.84665 86.5828 5.8355C59.3615 5.8355 32.1403 6.02518 4.91912 6.42685L2.15585 8.71416C48.6024 7.6765 95.0686 6.76158 141.535 5.94707C188.001 5.14373 234.467 4.4408 280.933 3.8606C307.018 3.53703 333.122 3.23578 359.206 2.97915C360.735 2.96799 363.048 2.71137 363.89 1.87455C364.733 1.03773 363.185 0.703001 361.97 0.691843C325.93 0.312485 289.929 0.0781749 253.908 0.0223869C217.887 -0.0334011 182.2 0.0670173 146.356 0.345957C125.994 0.502164 105.612 0.714158 85.2501 0.981941C83.7215 1.00426 81.409 1.24972 80.5663 2.08654C79.7628 2.87873 81.2522 3.29156 82.4868 3.26925V3.25809Z" fill="#F58F29"/>
</g>
<defs>
<clipPath id="clip0_238_88307">
<rect width="379" height="16" fill="white"/>
</clipPath>
</defs>
</svg>
