<svg width="101" height="101" viewBox="0 0 101 101" fill="none" xmlns="http://www.w3.org/2000/svg">
<path fill-rule="evenodd" clip-rule="evenodd" d="M78.9658 55.2264C77.4471 61.5899 61.2435 64.4892 53.625 59.7574C52.4954 59.0545 52.5457 59.0042 54.6166 58.8411C61.2436 58.2888 66.126 56.3435 66.8414 53.9713C67.72 51.0092 64.7955 48.1852 60.9674 48.2731C54.6416 48.4237 49.9978 51.3857 49.7844 55.3895L49.7342 56.3434L47.977 56.2681C43.4586 56.0673 38.2373 54.4356 36.4174 52.6157L36.0032 52.2015C42.3666 51.6367 54.2275 50.1682 52.2193 44.0934C49.7342 36.5879 33.2797 40.5666 33.2044 48.6746L33.1917 49.8168C33.1666 49.8168 21.0172 48.7123 21.833 43.8048C22.3099 40.9181 26.8535 37.6798 31.9116 36.5879L32.9031 36.3745C33.1667 36.3118 33.3298 36.0733 33.2922 35.8098C32.8529 33.3121 24.0671 36.2741 21.6447 39.7257C17.8417 45.1352 22.7994 50.9214 32.1751 51.9882L33.9448 52.2016L34.5096 53.0174C36.8943 56.4815 42.6051 58.9039 48.7803 59.0545C50.5751 59.0922 50.6253 59.1173 50.9391 59.657C55.7838 68.0913 79.5306 66.058 80.7355 57.0714C80.9112 55.6155 79.5933 52.5656 78.9658 55.2264ZM65.0089 52.3898C63.5153 54.2097 59.2981 55.5653 53.738 56.0548C51.5917 56.243 51.5289 56.2054 52.2193 55.0884C54.0266 52.1514 61.3941 50.0051 64.5696 51.4987C65.423 51.9004 65.4105 51.8878 65.0089 52.3898ZM50.7509 44.7587C49.6213 47.294 41.3249 49.9926 35.3631 49.7792L34.7606 49.7541L35.1246 48.6622C35.9906 46.1394 38.9779 43.8801 42.4044 43.1898C46.4709 42.3614 51.4161 43.2902 50.7509 44.7587Z" fill="#F69F1E"/>
</svg>
